<svg width="1200" height="900" viewBox="0 0 1200 900" fill="none" xmlns="http://www.w3.org/2000/svg">
  <rect width="1200" height="900" rx="48" fill="#FFF8ED"/>
  <rect x="44" y="44" width="1112" height="812" rx="40" fill="#FFFCF7" stroke="#EADFCB" stroke-width="2"/>
  <circle cx="1018" cy="162" r="130" fill="url(#paint0_radial)" fill-opacity="0.9"/>
  <circle cx="168" cy="118" r="94" fill="url(#paint1_radial)" fill-opacity="0.8"/>
  <rect x="104" y="120" width="400" height="512" rx="32" fill="#FFFFFF" stroke="#EBDDC7" stroke-width="2"/>
  <rect x="142" y="166" width="126" height="18" rx="9" fill="#F4E6C9"/>
  <rect x="142" y="206" width="220" height="54" rx="18" fill="#FFF7E6" stroke="#E8D7B7" stroke-width="2"/>
  <rect x="142" y="282" width="324" height="16" rx="8" fill="#EDE0C8"/>
  <rect x="142" y="314" width="278" height="16" rx="8" fill="#F2E8D6"/>
  <rect x="142" y="370" width="324" height="124" rx="28" fill="#FFF9EE" stroke="#E9D8B4" stroke-width="2"/>
  <rect x="170" y="398" width="112" height="12" rx="6" fill="#D9AF57"/>
  <rect x="170" y="426" width="168" height="12" rx="6" fill="#E6D3A9"/>
  <rect x="170" y="462" width="268" height="12" rx="6" fill="#F0E5CF"/>
  <rect x="142" y="530" width="178" height="54" rx="18" fill="url(#paint2_linear)"/>
  <path d="M344 557H428" stroke="#D4B06A" stroke-width="4" stroke-linecap="round"/>
  <path d="M428 557L413 542" stroke="#D4B06A" stroke-width="4" stroke-linecap="round" stroke-linejoin="round"/>
  <path d="M428 557L413 572" stroke="#D4B06A" stroke-width="4" stroke-linecap="round" stroke-linejoin="round"/>
  <rect x="578" y="132" width="520" height="320" rx="36" fill="#FEFBF4" stroke="#EADCC6" stroke-width="2"/>
  <rect x="622" y="180" width="162" height="16" rx="8" fill="#E8D7B4"/>
  <rect x="622" y="216" width="282" height="18" rx="9" fill="#F2E4C6"/>
  <path d="M714 286C714 260.49 734.49 240 760 240H924C949.51 240 970 260.49 970 286V298C970 323.51 949.51 344 924 344H760C734.49 344 714 323.51 714 298V286Z" fill="#FFF4DA" stroke="#E3C783" stroke-width="2"/>
  <circle cx="766" cy="292" r="24" fill="#EAC677"/>
  <path d="M818 292H918" stroke="#DAB25B" stroke-width="8" stroke-linecap="round"/>
  <path d="M818 318H886" stroke="#E8D7AF" stroke-width="8" stroke-linecap="round"/>
  <path d="M612 604C612 572.52 637.52 547 669 547H1027C1058.48 547 1084 572.52 1084 604V670C1084 701.48 1058.48 727 1027 727H669C637.52 727 612 701.48 612 670V604Z" fill="#FFFFFF" stroke="#E8D9C3" stroke-width="2"/>
  <circle cx="709" cy="638" r="26" fill="#FFF2CD" stroke="#E3C26F" stroke-width="2"/>
  <circle cx="851" cy="638" r="26" fill="#FFF7E6" stroke="#E8D7B7" stroke-width="2"/>
  <circle cx="991" cy="638" r="26" fill="#F9ECCC" stroke="#DDB45A" stroke-width="2"/>
  <path d="M735 638H825" stroke="#D6AF5B" stroke-width="5" stroke-linecap="round"/>
  <path d="M877 638H965" stroke="#D6AF5B" stroke-width="5" stroke-linecap="round"/>
  <path d="M708 666H992" stroke="#EFE2C9" stroke-width="6" stroke-linecap="round"/>
  <rect x="574" y="478" width="174" height="22" rx="11" fill="#F4E7CB"/>
  <rect x="774" y="478" width="142" height="22" rx="11" fill="#F2E6D2"/>
  <rect x="938" y="478" width="92" height="22" rx="11" fill="#E7D2A2"/>
  <path d="M486 596C550.5 561.5 589.5 536 646.5 462" stroke="#DDB45A" stroke-width="5" stroke-linecap="round" stroke-dasharray="10 14"/>
  <path d="M474 522C550 523 603 506 669 454" stroke="#E7D5B0" stroke-width="4" stroke-linecap="round" stroke-dasharray="10 14"/>
  <circle cx="470" cy="520" r="14" fill="#FFFFFF" stroke="#DDB45A" stroke-width="3"/>
  <circle cx="482" cy="596" r="14" fill="#FFF7E7" stroke="#E5D1A1" stroke-width="3"/>
  <circle cx="660" cy="454" r="14" fill="#FFF7E7" stroke="#DDB45A" stroke-width="3"/>
  <circle cx="646" cy="462" r="14" fill="#FFFFFF" stroke="#E5D1A1" stroke-width="3"/>
  <defs>
    <radialGradient id="paint0_radial" cx="0" cy="0" r="1" gradientUnits="userSpaceOnUse" gradientTransform="translate(1018 162) rotate(90) scale(130)">
      <stop stop-color="#F2D089"/>
      <stop offset="1" stop-color="#F2D089" stop-opacity="0"/>
    </radialGradient>
    <radialGradient id="paint1_radial" cx="0" cy="0" r="1" gradientUnits="userSpaceOnUse" gradientTransform="translate(168 118) rotate(90) scale(94)">
      <stop stop-color="#F5E4BB"/>
      <stop offset="1" stop-color="#F5E4BB" stop-opacity="0"/>
    </radialGradient>
    <linearGradient id="paint2_linear" x1="142" y1="557" x2="320" y2="557" gradientUnits="userSpaceOnUse">
      <stop stop-color="#F4D588"/>
      <stop offset="1" stop-color="#D9AA48"/>
    </linearGradient>
  </defs>
</svg>
